<svg width="69" height="64" viewBox="0 0 69 64" fill="none" xmlns="http://www.w3.org/2000/svg">
<path d="M66.975 41.9333L60.4417 34.1666C59.4417 33 59.4417 31.0666 60.4417 29.9L66.975 22.1333C67.875 20.3333 66.975 18.1333 65.0417 17.4666L60.6083 16C59.5417 15.6333 57.975 16 57.175 16.8L49.575 24.3666C49.0417 24.9333 47.975 25.3666 47.2083 25.3666H37.7083C36.3083 25.3666 35.6417 24.3333 36.175 23.0333L43.2417 6.66664C44.3417 4.09998 42.975 1.99998 40.175 1.99998H35.875C33.6417 1.99998 31.075 3.66665 30.2083 5.73332L22.175 24.3666C21.9417 24.9 21.2417 25.3666 20.6417 25.3666H10.6417C7.50833 25.3666 3.80833 27.6666 2.375 30.4666C1.875 31.4666 1.875 32.6333 2.375 33.6333C3.80833 36.4333 7.54167 38.7333 10.675 38.7333H20.675C21.275 38.7333 21.975 39.2 22.2083 39.7333L30.2417 58.3333C31.075 60.4 33.6417 62.0667 35.875 62.0667H40.175C42.975 62.0667 44.3417 59.9667 43.2417 57.4L36.175 41.0333C35.6083 39.7666 36.3083 38.7 37.7083 38.7H47.2083C47.975 38.7 49.0417 39.1333 49.575 39.6666L57.175 47.2333C57.975 48.0333 59.5083 48.4 60.6083 48.0333L65.0417 46.5667C66.975 45.9667 67.9083 43.7666 66.975 41.9333Z" stroke="black" stroke-width="3" stroke-linecap="round" stroke-linejoin="round"/>
</svg>
