<svg width="80" height="80" viewBox="0 0 80 80" fill="none" xmlns="http://www.w3.org/2000/svg">
<path d="M56.3335 73.3334H23.6668C18.0002 73.3334 13.3335 68.7001 13.3335 63.0001V17.0001C13.3335 11.3334 17.9668 6.66675 23.6668 6.66675H56.3335C62.0001 6.66675 66.6668 11.3001 66.6668 17.0001V63.0001C66.6668 68.7001 62.0335 73.3334 56.3335 73.3334Z" stroke="black" stroke-width="3" stroke-linecap="round" stroke-linejoin="round"/>
<path d="M61.6668 43.3334H18.3335C15.5668 43.3334 13.3335 41.1001 13.3335 38.3334V31.6667C13.3335 28.9001 15.5668 26.6667 18.3335 26.6667H61.6668C64.4335 26.6667 66.6668 28.9001 66.6668 31.6667V38.3334C66.6668 41.1001 64.4335 43.3334 61.6668 43.3334Z" stroke="black" stroke-width="3" stroke-linecap="round" stroke-linejoin="round"/>
<path d="M28.3149 58.9999H28.3448" stroke="black" stroke-width="3" stroke-linecap="round" stroke-linejoin="round"/>
<path d="M51.6484 58.9999H51.6783" stroke="black" stroke-width="3" stroke-linecap="round" stroke-linejoin="round"/>
<path d="M31.6665 16.6667H48.3332" stroke="black" stroke-width="3" stroke-linecap="round" stroke-linejoin="round"/>
</svg>
