<svg width="80" height="80" viewBox="0 0 80 80" fill="none" xmlns="http://www.w3.org/2000/svg">
<path d="M51.7002 9.43335H28.3002C20.0002 9.43335 18.1668 13.5667 17.1002 18.6334L13.3335 36.6667H66.6668L62.9002 18.6334C61.8335 13.5667 60.0002 9.43335 51.7002 9.43335Z" stroke="black" stroke-width="3" stroke-linecap="round" stroke-linejoin="round"/>
<path d="M73.3001 66.0667C73.6668 69.9667 70.5334 73.3334 66.5334 73.3334H60.2668C56.6668 73.3334 56.1668 71.8001 55.5334 69.9001L54.8668 67.9001C53.9334 65.1668 53.3334 63.3334 48.5334 63.3334H31.4668C26.6668 63.3334 25.9668 65.4001 25.1334 67.9001L24.4668 69.9001C23.8334 71.8001 23.3334 73.3334 19.7334 73.3334H13.4668C9.46676 73.3334 6.33343 69.9667 6.7001 66.0667L8.56676 45.7667C9.03343 40.7667 10.0001 36.6667 18.7334 36.6667H61.2668C70.0001 36.6667 70.9668 40.7667 71.4334 45.7667L73.3001 66.0667Z" stroke="black" stroke-width="3" stroke-linecap="round" stroke-linejoin="round"/>
<path d="M13.3333 26.6667H10" stroke="black" stroke-width="3" stroke-linecap="round" stroke-linejoin="round"/>
<path d="M69.9998 26.6667H66.6665" stroke="black" stroke-width="3" stroke-linecap="round" stroke-linejoin="round"/>
<path d="M40 10V16.6667" stroke="black" stroke-width="3" stroke-linecap="round" stroke-linejoin="round"/>
<path d="M35 16.6667H45" stroke="black" stroke-width="3" stroke-linecap="round" stroke-linejoin="round"/>
<path d="M20 50H30" stroke="black" stroke-width="3" stroke-linecap="round" stroke-linejoin="round"/>
<path d="M50 50H60" stroke="black" stroke-width="3" stroke-linecap="round" stroke-linejoin="round"/>
</svg>
