<svg width="80" height="80" viewBox="0 0 80 80" fill="none" xmlns="http://www.w3.org/2000/svg">
<path d="M43.3332 73.3334H16.6665C9.99984 73.3334 6.6665 70.0001 6.6665 63.3334V36.6667C6.6665 30.0001 9.99984 26.6667 16.6665 26.6667H33.3332V63.3334C33.3332 70.0001 36.6665 73.3334 43.3332 73.3334Z" stroke="black" stroke-width="3" stroke-miterlimit="10" stroke-linecap="round" stroke-linejoin="round"/>
<path d="M33.6998 13.3333C33.4331 14.3333 33.3332 15.4333 33.3332 16.6666V26.6666H16.6665V19.9999C16.6665 16.3333 19.6665 13.3333 23.3332 13.3333H33.6998Z" stroke="black" stroke-width="3" stroke-miterlimit="10" stroke-linecap="round" stroke-linejoin="round"/>
<path d="M46.6665 26.6667V43.3334" stroke="black" stroke-width="3" stroke-miterlimit="10" stroke-linecap="round" stroke-linejoin="round"/>
<path d="M60 26.6667V43.3334" stroke="black" stroke-width="3" stroke-miterlimit="10" stroke-linecap="round" stroke-linejoin="round"/>
<path d="M56.6665 56.6667H49.9998C48.1665 56.6667 46.6665 58.1667 46.6665 60.0001V73.3334H59.9998V60.0001C59.9998 58.1667 58.4998 56.6667 56.6665 56.6667Z" stroke="black" stroke-width="3" stroke-miterlimit="10" stroke-linecap="round" stroke-linejoin="round"/>
<path d="M20 43.3333V56.6666" stroke="black" stroke-width="3" stroke-miterlimit="10" stroke-linecap="round" stroke-linejoin="round"/>
<path d="M33.3335 63.3334V16.6667C33.3335 10.0001 36.6668 6.66675 43.3335 6.66675H63.3335C70.0002 6.66675 73.3335 10.0001 73.3335 16.6667V63.3334C73.3335 70.0001 70.0002 73.3334 63.3335 73.3334H43.3335C36.6668 73.3334 33.3335 70.0001 33.3335 63.3334Z" stroke="black" stroke-width="3" stroke-miterlimit="10" stroke-linecap="round" stroke-linejoin="round"/>
</svg>
