<svg width="60" height="76" viewBox="0 0 60 76" fill="none" xmlns="http://www.w3.org/2000/svg">
<path fill-rule="evenodd" clip-rule="evenodd" d="M18.8322 4.74999C18.8322 2.12664 20.975 0 23.6184 0H26.8092C28.035 0 29.1532 0.457351 30 1.2095C30.8468 0.457351 31.965 0 33.1908 0H36.3816C39.025 0 41.1678 2.12664 41.1678 4.74999V6.60361C41.6668 6.42857 42.2038 6.33332 42.7632 6.33332H45.9541C48.5974 6.33332 50.7403 8.45997 50.7403 11.0833V22.1667H55.2134C58.0332 22.1667 60.2419 24.5738 59.9787 27.36L55.5195 74.5644C55.4373 75.435 54.6594 76.0746 53.7822 75.993C52.9049 75.9114 52.2604 75.1394 52.3426 74.2688L56.8018 27.0644C56.8895 26.1357 56.1533 25.3333 55.2134 25.3333H50.6263C50.3808 26.571 49.7495 27.7233 48.8406 28.746C47.6639 30.0701 46.0112 31.1956 44.0513 32.1028C42.0835 33.0136 39.7881 33.7127 37.3074 34.1755C34.824 34.6388 32.1813 34.8603 29.5309 34.8307C26.8806 34.8011 24.2605 34.5208 21.8212 34.0016C19.3851 33.483 17.1524 32.7311 15.2649 31.771C13.3857 30.8152 11.8241 29.6403 10.76 28.2651C10.0616 27.3625 9.58056 26.374 9.37372 25.3333H4.78663C3.8467 25.3333 3.11046 26.1357 3.1982 27.0644L7.38614 71.3977C7.463 72.2113 8.15115 72.8332 8.97458 72.8332H45.9541C46.8352 72.8332 47.5495 73.5421 47.5495 74.4166C47.5495 75.291 46.8352 75.9999 45.9541 75.9999H8.97458C6.5043 75.9999 4.43983 74.1341 4.20925 71.6933L0.021309 27.36C-0.241898 24.5738 1.96682 22.1667 4.78663 22.1667H9.25971V11.0833C9.25971 8.45997 11.4026 6.33332 14.0459 6.33332H17.2367C17.7962 6.33332 18.3331 6.42857 18.8322 6.60361V4.74999ZM12.4505 23.4899C12.473 23.6242 12.4782 23.7637 12.4641 23.9056C12.3907 24.6428 12.6119 25.4591 13.2908 26.3365C13.9839 27.2323 15.12 28.139 16.7202 28.9529C17.3662 29.2815 18.0725 29.5871 18.8322 29.8658V11.0833C18.8322 10.2089 18.1179 9.49998 17.2367 9.49998H14.0459C13.1648 9.49998 12.4505 10.2089 12.4505 11.0833V23.4899ZM21.8674 30.766C22.0727 30.8142 22.2803 30.8606 22.4903 30.9053C24.3558 31.3024 26.356 31.5492 28.4046 31.6338V4.74999C28.4046 3.87554 27.6903 3.16666 26.8092 3.16666H23.6184C22.7372 3.16666 22.023 3.87554 22.023 4.74999V30.0833C22.023 30.3277 21.9671 30.5593 21.8674 30.766ZM31.5954 31.6338C33.353 31.5612 35.079 31.3691 36.7179 31.0633C37.1463 30.9834 37.5663 30.8962 37.977 30.8021V4.74999C37.977 3.87554 37.2627 3.16666 36.3816 3.16666H33.1908C32.3097 3.16666 31.5954 3.87554 31.5954 4.74999V31.6338ZM41.1678 29.8658C41.7065 29.6682 42.219 29.4568 42.7027 29.2329C44.3943 28.4499 45.6433 27.5564 46.4476 26.6514C47.2395 25.7603 47.5472 24.9243 47.5495 24.1855V11.0833C47.5495 10.2089 46.8352 9.49998 45.9541 9.49998H42.7632C41.8821 9.49998 41.1678 10.2089 41.1678 11.0833V29.8658Z" fill="black"/>
<path d="M36.7552 55.9145C38.2537 52.7486 36.8825 48.9765 33.6925 47.4893C30.5025 46.0021 26.7016 47.3629 25.2031 50.5288C23.7045 53.6947 25.0757 57.4668 28.2657 58.954C29.0632 59.3258 29.406 60.2688 29.0314 61.0603C28.6568 61.8517 27.7066 62.1919 26.909 61.8201C22.124 59.5893 20.0672 53.9312 22.315 49.1824C24.5629 44.4336 30.2641 42.3923 35.0492 44.6231C39.8342 46.854 41.891 52.5121 39.6432 57.2609C38.5455 59.5798 36.6213 61.2547 34.3868 62.0993C33.5634 62.4105 32.6417 62.0003 32.3281 61.1831C32.0145 60.3659 32.4278 59.4512 33.2512 59.1399C34.7442 58.5757 36.0229 57.4613 36.7552 55.9145Z" fill="black"/>
</svg>
