<svg width="56" height="74" viewBox="0 0 56 74" fill="none" xmlns="http://www.w3.org/2000/svg">
<path d="M12.3081 49.3333C14.0075 49.3333 15.3852 50.7138 15.3852 52.4166C15.3852 54.1195 14.0075 55.5 12.3081 55.5C10.6087 55.5 9.23108 54.1195 9.23108 52.4166C9.23108 50.7138 10.6087 49.3333 12.3081 49.3333Z" fill="black"/>
<path d="M43.0783 49.3333C44.7777 49.3333 46.1554 50.7138 46.1554 52.4166C46.1554 54.1195 44.7777 55.5 43.0783 55.5C41.379 55.5 40.0014 54.1195 40.0014 52.4166C40.0014 50.7138 41.379 49.3333 43.0783 49.3333Z" fill="black"/>
<path fill-rule="evenodd" clip-rule="evenodd" d="M10.7696 1.54168H44.6169V0H47.6939V3.08337L47.6934 3.12309C47.6724 3.95615 46.9918 4.62494 46.1554 4.62495H29.2318V10.7465C37.7805 11.052 46.2575 13.9048 53.467 19.3047C54.6751 20.2095 55.3865 21.6324 55.3865 23.1438V58.5833L55.386 58.663C55.3442 61.9636 52.7148 64.6392 49.4372 64.7465L55.0298 71.4714L55.0549 71.5022C55.571 72.1557 55.4754 73.1061 54.8328 73.6426C54.1903 74.1792 53.2402 74.102 52.6918 73.4755L52.666 73.4452L50.5632 70.9166H4.8233L2.7205 73.4452C2.17653 74.0993 1.20639 74.1877 0.553642 73.6426C-0.0990868 73.0976 -0.187327 72.1255 0.356562 71.4714L5.94917 64.7465C2.67159 64.6391 0.0422413 61.9635 0.000510834 58.663L0 58.5833V23.1438C0 21.656 0.689346 20.254 1.86322 19.3475L1.91951 19.3047C9.12895 13.9048 17.606 11.0521 26.1547 10.7465V4.62495H9.23108C8.38141 4.62493 7.69257 3.93478 7.69255 3.08337V0H10.7696V1.54168ZM7.38758 67.8333H47.9989L45.4348 64.75H9.95166L7.38758 67.8333ZM3.07706 58.5833C3.07706 60.2861 4.45466 61.6666 6.15402 61.6666H49.2324C50.9318 61.6666 52.3094 60.2862 52.3094 58.5833V46.25H3.07706V58.5833ZM3.07706 43.1666H52.3094V27.75H3.07706V43.1666ZM51.6247 21.7744C37.4335 11.1451 17.9528 11.1451 3.76168 21.7744C3.34426 22.0871 3.09307 22.5731 3.07778 23.0933L3.07706 23.1438V24.6666H52.3094V23.1438C52.3094 22.6215 52.0713 22.1288 51.6646 21.8051L51.6247 21.7744Z" fill="black"/>
</svg>
