<svg width="80" height="80" viewBox="0 0 80 80" fill="none" xmlns="http://www.w3.org/2000/svg">
<path d="M6.6665 73.3333H73.3332" stroke="black" stroke-width="3" stroke-miterlimit="10" stroke-linecap="round" stroke-linejoin="round"/>
<path d="M9.83398 73.3333L10.0006 33.2332C10.0006 31.1999 10.9673 29.2667 12.5673 28.0001L35.9006 9.83335C38.3006 7.96668 41.6673 7.96668 44.1006 9.83335L67.434 27.9667C69.0673 29.2334 70.0006 31.1665 70.0006 33.2332V73.3333" stroke="black" stroke-width="3" stroke-miterlimit="10" stroke-linejoin="round"/>
<path d="M43.3332 56.6667H36.6665C33.8998 56.6667 31.6665 58.9001 31.6665 61.6667V73.3334H48.3332V61.6667C48.3332 58.9001 46.0998 56.6667 43.3332 56.6667Z" stroke="black" stroke-width="3" stroke-miterlimit="10" stroke-linejoin="round"/>
<path d="M31.6665 45.8334H24.9998C23.1665 45.8334 21.6665 44.3334 21.6665 42.5001V37.5001C21.6665 35.6667 23.1665 34.1667 24.9998 34.1667H31.6665C33.4998 34.1667 34.9998 35.6667 34.9998 37.5001V42.5001C34.9998 44.3334 33.4998 45.8334 31.6665 45.8334Z" stroke="black" stroke-width="3" stroke-miterlimit="10" stroke-linejoin="round"/>
<path d="M55 45.8334H48.3333C46.5 45.8334 45 44.3334 45 42.5001V37.5001C45 35.6667 46.5 34.1667 48.3333 34.1667H55C56.8333 34.1667 58.3333 35.6667 58.3333 37.5001V42.5001C58.3333 44.3334 56.8333 45.8334 55 45.8334Z" stroke="black" stroke-width="3" stroke-miterlimit="10" stroke-linejoin="round"/>
<path d="M63.3326 23.3333L63.2326 13.3333H48.5659" stroke="black" stroke-width="3" stroke-miterlimit="10" stroke-linecap="round" stroke-linejoin="round"/>
</svg>
